<svg xmlns="http://www.w3.org/2000/svg" viewBox="0 0 109.0 12.0" shape-rendering="crispEdges"><g fill="var(--bg2)" transform="translate(1.4,1.4)"><rect x="0" y="0" width="8" height="1"/><rect x="11" y="0" width="3" height="1"/><rect x="18" y="0" width="2" height="1"/><rect x="24" y="0" width="1" height="1"/><rect x="30" y="0" width="2" height="1"/><rect x="36" y="0" width="3" height="1"/><rect x="43" y="0" width="2" height="1"/><rect x="56" y="0" width="5" height="1"/><rect x="64" y="0" width="2" height="1"/><rect x="70" y="0" width="1" height="1"/><rect x="73" y="0" width="2" height="1"/><rect x="78" y="0" width="2" height="1"/><rect x="82" y="0" width="2" height="1"/><rect x="87" y="0" width="3" height="1"/><rect x="91" y="0" width="2" height="1"/><rect x="101" y="0" width="3" height="1"/><rect x="3" y="1" width="2" height="1"/><rect x="11" y="1" width="3" height="1"/><rect x="18" y="1" width="3" height="1"/><rect x="24" y="1" width="1" height="1"/><rect x="30" y="1" width="2" height="1"/><rect x="36" y="1" width="3" height="1"/><rect x="43" y="1" width="2" height="1"/><rect x="55" y="1" width="2" height="1"/><rect x="60" y="1" width="2" height="1"/><rect x="64" y="1" width="2" height="1"/><rect x="70" y="1" width="1" height="1"/><rect x="73" y="1" width="2" height="1"/><rect x="78" y="1" width="2" height="1"/><rect x="82" y="1" width="2" height="1"/><rect x="86" y="1" width="3" height="1"/><rect x="91" y="1" width="2" height="1"/><rect x="101" y="1" width="3" height="1"/><rect x="3" y="2" width="2" height="1"/><rect x="11" y="2" width="4" height="1"/><rect x="18" y="2" width="3" height="1"/><rect x="24" y="2" width="1" height="1"/><rect x="30" y="2" width="2" height="1"/><rect x="36" y="2" width="4" height="1"/><rect x="43" y="2" width="2" height="1"/><rect x="55" y="2" width="2" height="1"/><rect x="64" y="2" width="2" height="1"/><rect x="70" y="2" width="1" height="1"/><rect x="73" y="2" width="2" height="1"/><rect x="78" y="2" width="2" height="1"/><rect x="82" y="2" width="2" height="1"/><rect x="85" y="2" width="3" height="1"/><rect x="91" y="2" width="2" height="1"/><rect x="101" y="2" width="4" height="1"/><rect x="3" y="3" width="2" height="1"/><rect x="10" y="3" width="2" height="1"/><rect x="13" y="3" width="2" height="1"/><rect x="18" y="3" width="4" height="1"/><rect x="24" y="3" width="1" height="1"/><rect x="30" y="3" width="2" height="1"/><rect x="35" y="3" width="2" height="1"/><rect x="38" y="3" width="2" height="1"/><rect x="43" y="3" width="2" height="1"/><rect x="55" y="3" width="3" height="1"/><rect x="64" y="3" width="2" height="1"/><rect x="70" y="3" width="1" height="1"/><rect x="73" y="3" width="2" height="1"/><rect x="78" y="3" width="2" height="1"/><rect x="82" y="3" width="5" height="1"/><rect x="91" y="3" width="2" height="1"/><rect x="100" y="3" width="2" height="1"/><rect x="103" y="3" width="2" height="1"/><rect x="3" y="4" width="2" height="1"/><rect x="10" y="4" width="2" height="1"/><rect x="13" y="4" width="2" height="1"/><rect x="18" y="4" width="4" height="1"/><rect x="24" y="4" width="1" height="1"/><rect x="30" y="4" width="2" height="1"/><rect x="35" y="4" width="2" height="1"/><rect x="38" y="4" width="2" height="1"/><rect x="43" y="4" width="2" height="1"/><rect x="56" y="4" width="4" height="1"/><rect x="64" y="4" width="7" height="1"/><rect x="73" y="4" width="2" height="1"/><rect x="78" y="4" width="2" height="1"/><rect x="82" y="4" width="5" height="1"/><rect x="91" y="4" width="2" height="1"/><rect x="100" y="4" width="2" height="1"/><rect x="103" y="4" width="2" height="1"/><rect x="3" y="5" width="2" height="1"/><rect x="10" y="5" width="2" height="1"/><rect x="13" y="5" width="3" height="1"/><rect x="18" y="5" width="2" height="1"/><rect x="21" y="5" width="2" height="1"/><rect x="24" y="5" width="1" height="1"/><rect x="30" y="5" width="2" height="1"/><rect x="35" y="5" width="2" height="1"/><rect x="38" y="5" width="3" height="1"/><rect x="43" y="5" width="2" height="1"/><rect x="57" y="5" width="4" height="1"/><rect x="64" y="5" width="2" height="1"/><rect x="70" y="5" width="1" height="1"/><rect x="73" y="5" width="2" height="1"/><rect x="78" y="5" width="2" height="1"/><rect x="82" y="5" width="6" height="1"/><rect x="91" y="5" width="2" height="1"/><rect x="100" y="5" width="2" height="1"/><rect x="103" y="5" width="3" height="1"/><rect x="3" y="6" width="2" height="1"/><rect x="9" y="6" width="2" height="1"/><rect x="14" y="6" width="2" height="1"/><rect x="18" y="6" width="2" height="1"/><rect x="21" y="6" width="4" height="1"/><rect x="30" y="6" width="2" height="1"/><rect x="34" y="6" width="2" height="1"/><rect x="39" y="6" width="2" height="1"/><rect x="43" y="6" width="2" height="1"/><rect x="59" y="6" width="3" height="1"/><rect x="64" y="6" width="2" height="1"/><rect x="70" y="6" width="1" height="1"/><rect x="73" y="6" width="2" height="1"/><rect x="78" y="6" width="2" height="1"/><rect x="82" y="6" width="2" height="1"/><rect x="86" y="6" width="2" height="1"/><rect x="91" y="6" width="2" height="1"/><rect x="99" y="6" width="2" height="1"/><rect x="104" y="6" width="2" height="1"/><rect x="3" y="7" width="2" height="1"/><rect x="9" y="7" width="7" height="1"/><rect x="18" y="7" width="2" height="1"/><rect x="22" y="7" width="3" height="1"/><rect x="26" y="7" width="2" height="1"/><rect x="30" y="7" width="2" height="1"/><rect x="34" y="7" width="7" height="1"/><rect x="43" y="7" width="2" height="1"/><rect x="60" y="7" width="2" height="1"/><rect x="64" y="7" width="2" height="1"/><rect x="70" y="7" width="1" height="1"/><rect x="73" y="7" width="2" height="1"/><rect x="78" y="7" width="2" height="1"/><rect x="82" y="7" width="2" height="1"/><rect x="87" y="7" width="2" height="1"/><rect x="91" y="7" width="2" height="1"/><rect x="99" y="7" width="7" height="1"/><rect x="3" y="8" width="2" height="1"/><rect x="9" y="8" width="2" height="1"/><rect x="15" y="8" width="2" height="1"/><rect x="18" y="8" width="2" height="1"/><rect x="23" y="8" width="2" height="1"/><rect x="27" y="8" width="1" height="1"/><rect x="30" y="8" width="2" height="1"/><rect x="34" y="8" width="2" height="1"/><rect x="40" y="8" width="2" height="1"/><rect x="43" y="8" width="2" height="1"/><rect x="55" y="8" width="2" height="1"/><rect x="60" y="8" width="2" height="1"/><rect x="64" y="8" width="2" height="1"/><rect x="70" y="8" width="1" height="1"/><rect x="73" y="8" width="2" height="1"/><rect x="78" y="8" width="2" height="1"/><rect x="82" y="8" width="2" height="1"/><rect x="87" y="8" width="2" height="1"/><rect x="91" y="8" width="2" height="1"/><rect x="99" y="8" width="2" height="1"/><rect x="105" y="8" width="2" height="1"/><rect x="3" y="9" width="2" height="1"/><rect x="8" y="9" width="2" height="1"/><rect x="15" y="9" width="2" height="1"/><rect x="18" y="9" width="2" height="1"/><rect x="23" y="9" width="2" height="1"/><rect x="27" y="9" width="4" height="1"/><rect x="33" y="9" width="2" height="1"/><rect x="40" y="9" width="2" height="1"/><rect x="43" y="9" width="7" height="1"/><rect x="56" y="9" width="5" height="1"/><rect x="64" y="9" width="2" height="1"/><rect x="70" y="9" width="1" height="1"/><rect x="74" y="9" width="5" height="1"/><rect x="82" y="9" width="2" height="1"/><rect x="88" y="9" width="2" height="1"/><rect x="91" y="9" width="9" height="1"/><rect x="105" y="9" width="2" height="1"/></g><g fill="var(--purple)"><rect x="0" y="0" width="8" height="1"/><rect x="11" y="0" width="3" height="1"/><rect x="18" y="0" width="2" height="1"/><rect x="24" y="0" width="1" height="1"/><rect x="30" y="0" width="2" height="1"/><rect x="36" y="0" width="3" height="1"/><rect x="43" y="0" width="2" height="1"/><rect x="56" y="0" width="5" height="1"/><rect x="64" y="0" width="2" height="1"/><rect x="70" y="0" width="1" height="1"/><rect x="73" y="0" width="2" height="1"/><rect x="78" y="0" width="2" height="1"/><rect x="82" y="0" width="2" height="1"/><rect x="87" y="0" width="3" height="1"/><rect x="91" y="0" width="2" height="1"/><rect x="101" y="0" width="3" height="1"/><rect x="3" y="1" width="2" height="1"/><rect x="11" y="1" width="3" height="1"/><rect x="18" y="1" width="3" height="1"/><rect x="24" y="1" width="1" height="1"/><rect x="30" y="1" width="2" height="1"/><rect x="36" y="1" width="3" height="1"/><rect x="43" y="1" width="2" height="1"/><rect x="55" y="1" width="2" height="1"/><rect x="60" y="1" width="2" height="1"/><rect x="64" y="1" width="2" height="1"/><rect x="70" y="1" width="1" height="1"/><rect x="73" y="1" width="2" height="1"/><rect x="78" y="1" width="2" height="1"/><rect x="82" y="1" width="2" height="1"/><rect x="86" y="1" width="3" height="1"/><rect x="91" y="1" width="2" height="1"/><rect x="101" y="1" width="3" height="1"/><rect x="3" y="2" width="2" height="1"/><rect x="11" y="2" width="4" height="1"/><rect x="18" y="2" width="3" height="1"/><rect x="24" y="2" width="1" height="1"/><rect x="30" y="2" width="2" height="1"/><rect x="36" y="2" width="4" height="1"/><rect x="43" y="2" width="2" height="1"/><rect x="55" y="2" width="2" height="1"/><rect x="64" y="2" width="2" height="1"/><rect x="70" y="2" width="1" height="1"/><rect x="73" y="2" width="2" height="1"/><rect x="78" y="2" width="2" height="1"/><rect x="82" y="2" width="2" height="1"/><rect x="85" y="2" width="3" height="1"/><rect x="91" y="2" width="2" height="1"/><rect x="101" y="2" width="4" height="1"/><rect x="3" y="3" width="2" height="1"/><rect x="10" y="3" width="2" height="1"/><rect x="13" y="3" width="2" height="1"/><rect x="18" y="3" width="4" height="1"/><rect x="24" y="3" width="1" height="1"/><rect x="30" y="3" width="2" height="1"/><rect x="35" y="3" width="2" height="1"/><rect x="38" y="3" width="2" height="1"/><rect x="43" y="3" width="2" height="1"/><rect x="55" y="3" width="3" height="1"/><rect x="64" y="3" width="2" height="1"/><rect x="70" y="3" width="1" height="1"/><rect x="73" y="3" width="2" height="1"/><rect x="78" y="3" width="2" height="1"/><rect x="82" y="3" width="5" height="1"/><rect x="91" y="3" width="2" height="1"/><rect x="100" y="3" width="2" height="1"/><rect x="103" y="3" width="2" height="1"/><rect x="3" y="4" width="2" height="1"/><rect x="10" y="4" width="2" height="1"/><rect x="13" y="4" width="2" height="1"/><rect x="18" y="4" width="4" height="1"/><rect x="24" y="4" width="1" height="1"/><rect x="30" y="4" width="2" height="1"/><rect x="35" y="4" width="2" height="1"/><rect x="38" y="4" width="2" height="1"/><rect x="43" y="4" width="2" height="1"/><rect x="56" y="4" width="4" height="1"/><rect x="64" y="4" width="7" height="1"/><rect x="73" y="4" width="2" height="1"/><rect x="78" y="4" width="2" height="1"/><rect x="82" y="4" width="5" height="1"/><rect x="91" y="4" width="2" height="1"/><rect x="100" y="4" width="2" height="1"/><rect x="103" y="4" width="2" height="1"/><rect x="3" y="5" width="2" height="1"/><rect x="10" y="5" width="2" height="1"/><rect x="13" y="5" width="3" height="1"/><rect x="18" y="5" width="2" height="1"/><rect x="21" y="5" width="2" height="1"/><rect x="24" y="5" width="1" height="1"/><rect x="30" y="5" width="2" height="1"/><rect x="35" y="5" width="2" height="1"/><rect x="38" y="5" width="3" height="1"/><rect x="43" y="5" width="2" height="1"/><rect x="57" y="5" width="4" height="1"/><rect x="64" y="5" width="2" height="1"/><rect x="70" y="5" width="1" height="1"/><rect x="73" y="5" width="2" height="1"/><rect x="78" y="5" width="2" height="1"/><rect x="82" y="5" width="6" height="1"/><rect x="91" y="5" width="2" height="1"/><rect x="100" y="5" width="2" height="1"/><rect x="103" y="5" width="3" height="1"/><rect x="3" y="6" width="2" height="1"/><rect x="9" y="6" width="2" height="1"/><rect x="14" y="6" width="2" height="1"/><rect x="18" y="6" width="2" height="1"/><rect x="21" y="6" width="4" height="1"/><rect x="30" y="6" width="2" height="1"/><rect x="34" y="6" width="2" height="1"/><rect x="39" y="6" width="2" height="1"/><rect x="43" y="6" width="2" height="1"/><rect x="59" y="6" width="3" height="1"/><rect x="64" y="6" width="2" height="1"/><rect x="70" y="6" width="1" height="1"/><rect x="73" y="6" width="2" height="1"/><rect x="78" y="6" width="2" height="1"/><rect x="82" y="6" width="2" height="1"/><rect x="86" y="6" width="2" height="1"/><rect x="91" y="6" width="2" height="1"/><rect x="99" y="6" width="2" height="1"/><rect x="104" y="6" width="2" height="1"/><rect x="3" y="7" width="2" height="1"/><rect x="9" y="7" width="7" height="1"/><rect x="18" y="7" width="2" height="1"/><rect x="22" y="7" width="3" height="1"/><rect x="26" y="7" width="2" height="1"/><rect x="30" y="7" width="2" height="1"/><rect x="34" y="7" width="7" height="1"/><rect x="43" y="7" width="2" height="1"/><rect x="60" y="7" width="2" height="1"/><rect x="64" y="7" width="2" height="1"/><rect x="70" y="7" width="1" height="1"/><rect x="73" y="7" width="2" height="1"/><rect x="78" y="7" width="2" height="1"/><rect x="82" y="7" width="2" height="1"/><rect x="87" y="7" width="2" height="1"/><rect x="91" y="7" width="2" height="1"/><rect x="99" y="7" width="7" height="1"/><rect x="3" y="8" width="2" height="1"/><rect x="9" y="8" width="2" height="1"/><rect x="15" y="8" width="2" height="1"/><rect x="18" y="8" width="2" height="1"/><rect x="23" y="8" width="2" height="1"/><rect x="27" y="8" width="1" height="1"/><rect x="30" y="8" width="2" height="1"/><rect x="34" y="8" width="2" height="1"/><rect x="40" y="8" width="2" height="1"/><rect x="43" y="8" width="2" height="1"/><rect x="55" y="8" width="2" height="1"/><rect x="60" y="8" width="2" height="1"/><rect x="64" y="8" width="2" height="1"/><rect x="70" y="8" width="1" height="1"/><rect x="73" y="8" width="2" height="1"/><rect x="78" y="8" width="2" height="1"/><rect x="82" y="8" width="2" height="1"/><rect x="87" y="8" width="2" height="1"/><rect x="91" y="8" width="2" height="1"/><rect x="99" y="8" width="2" height="1"/><rect x="105" y="8" width="2" height="1"/><rect x="3" y="9" width="2" height="1"/><rect x="8" y="9" width="2" height="1"/><rect x="15" y="9" width="2" height="1"/><rect x="18" y="9" width="2" height="1"/><rect x="23" y="9" width="2" height="1"/><rect x="27" y="9" width="4" height="1"/><rect x="33" y="9" width="2" height="1"/><rect x="40" y="9" width="2" height="1"/><rect x="43" y="9" width="7" height="1"/><rect x="56" y="9" width="5" height="1"/><rect x="64" y="9" width="2" height="1"/><rect x="70" y="9" width="1" height="1"/><rect x="74" y="9" width="5" height="1"/><rect x="82" y="9" width="2" height="1"/><rect x="88" y="9" width="2" height="1"/><rect x="91" y="9" width="9" height="1"/><rect x="105" y="9" width="2" height="1"/></g></svg>
